<mxfile host="app.diagrams.net" modified="2024-05-23T08:16:20.391Z" agent="Mozilla/5.0 (Windows NT 10.0; Win64; x64) AppleWebKit/537.36 (KHTML, like Gecko) Chrome/124.0.0.0 Safari/537.36" etag="akwYEOjxrK4sN2b-mQ2A" version="24.4.6" type="github">
  <diagram name="第 1 页" id="KXNaBC7-R1iuFYAztL_d">
    <mxGraphModel dx="1434" dy="738" grid="1" gridSize="10" guides="1" tooltips="1" connect="1" arrows="1" fold="1" page="1" pageScale="1" pageWidth="827" pageHeight="1169" math="0" shadow="0">
      <root>
        <mxCell id="0" />
        <mxCell id="1" parent="0" />
        <mxCell id="UbOd6Q2gbtsD8C0l6RZb-22" value="" style="edgeStyle=orthogonalEdgeStyle;rounded=0;orthogonalLoop=1;jettySize=auto;html=1;" edge="1" parent="1" source="UbOd6Q2gbtsD8C0l6RZb-1" target="UbOd6Q2gbtsD8C0l6RZb-2">
          <mxGeometry relative="1" as="geometry" />
        </mxCell>
        <mxCell id="UbOd6Q2gbtsD8C0l6RZb-1" value="" style="rounded=0;whiteSpace=wrap;html=1;fillColor=#e1d5e7;strokeColor=#9673a6;" vertex="1" parent="1">
          <mxGeometry x="160" y="40" width="650" height="110" as="geometry" />
        </mxCell>
        <mxCell id="UbOd6Q2gbtsD8C0l6RZb-23" value="" style="edgeStyle=orthogonalEdgeStyle;rounded=0;orthogonalLoop=1;jettySize=auto;html=1;" edge="1" parent="1" source="UbOd6Q2gbtsD8C0l6RZb-2" target="UbOd6Q2gbtsD8C0l6RZb-3">
          <mxGeometry relative="1" as="geometry" />
        </mxCell>
        <mxCell id="UbOd6Q2gbtsD8C0l6RZb-2" value="" style="rounded=0;whiteSpace=wrap;html=1;fillColor=#fff2cc;strokeColor=#d6b656;" vertex="1" parent="1">
          <mxGeometry x="160" y="180" width="650" height="150" as="geometry" />
        </mxCell>
        <mxCell id="UbOd6Q2gbtsD8C0l6RZb-24" value="" style="rounded=0;orthogonalLoop=1;jettySize=auto;html=1;" edge="1" parent="1" source="UbOd6Q2gbtsD8C0l6RZb-3" target="UbOd6Q2gbtsD8C0l6RZb-5">
          <mxGeometry relative="1" as="geometry" />
        </mxCell>
        <mxCell id="UbOd6Q2gbtsD8C0l6RZb-3" value="" style="rounded=0;whiteSpace=wrap;html=1;fillColor=#d5e8d4;strokeColor=#82b366;" vertex="1" parent="1">
          <mxGeometry x="160" y="360" width="650" height="360" as="geometry" />
        </mxCell>
        <mxCell id="UbOd6Q2gbtsD8C0l6RZb-25" value="" style="edgeStyle=orthogonalEdgeStyle;rounded=0;orthogonalLoop=1;jettySize=auto;html=1;" edge="1" parent="1" source="UbOd6Q2gbtsD8C0l6RZb-5" target="UbOd6Q2gbtsD8C0l6RZb-6">
          <mxGeometry relative="1" as="geometry" />
        </mxCell>
        <mxCell id="UbOd6Q2gbtsD8C0l6RZb-5" value="" style="rounded=0;whiteSpace=wrap;html=1;fillColor=#dae8fc;strokeColor=#6c8ebf;" vertex="1" parent="1">
          <mxGeometry x="160" y="760" width="650" height="380" as="geometry" />
        </mxCell>
        <mxCell id="UbOd6Q2gbtsD8C0l6RZb-26" value="" style="edgeStyle=orthogonalEdgeStyle;rounded=0;orthogonalLoop=1;jettySize=auto;html=1;" edge="1" parent="1" source="UbOd6Q2gbtsD8C0l6RZb-6" target="UbOd6Q2gbtsD8C0l6RZb-7">
          <mxGeometry relative="1" as="geometry" />
        </mxCell>
        <mxCell id="UbOd6Q2gbtsD8C0l6RZb-6" value="" style="rounded=0;whiteSpace=wrap;html=1;fillColor=#e1d5e7;strokeColor=#9673a6;" vertex="1" parent="1">
          <mxGeometry x="160" y="1160" width="650" height="70" as="geometry" />
        </mxCell>
        <mxCell id="UbOd6Q2gbtsD8C0l6RZb-27" value="" style="edgeStyle=orthogonalEdgeStyle;rounded=0;orthogonalLoop=1;jettySize=auto;html=1;" edge="1" parent="1" source="UbOd6Q2gbtsD8C0l6RZb-7" target="UbOd6Q2gbtsD8C0l6RZb-8">
          <mxGeometry relative="1" as="geometry" />
        </mxCell>
        <mxCell id="UbOd6Q2gbtsD8C0l6RZb-7" value="" style="rounded=0;whiteSpace=wrap;html=1;fillColor=#f8cecc;strokeColor=#b85450;" vertex="1" parent="1">
          <mxGeometry x="160" y="1300" width="650" height="150" as="geometry" />
        </mxCell>
        <mxCell id="UbOd6Q2gbtsD8C0l6RZb-28" value="" style="edgeStyle=orthogonalEdgeStyle;rounded=0;orthogonalLoop=1;jettySize=auto;html=1;" edge="1" parent="1" source="UbOd6Q2gbtsD8C0l6RZb-8" target="UbOd6Q2gbtsD8C0l6RZb-9">
          <mxGeometry relative="1" as="geometry" />
        </mxCell>
        <mxCell id="UbOd6Q2gbtsD8C0l6RZb-8" value="" style="rounded=0;whiteSpace=wrap;html=1;fillColor=#d5e8d4;strokeColor=#82b366;" vertex="1" parent="1">
          <mxGeometry x="160" y="1485" width="650" height="215" as="geometry" />
        </mxCell>
        <mxCell id="UbOd6Q2gbtsD8C0l6RZb-9" value="" style="rounded=0;whiteSpace=wrap;html=1;fillColor=#fff2cc;strokeColor=#d6b656;" vertex="1" parent="1">
          <mxGeometry x="160" y="1740" width="650" height="220" as="geometry" />
        </mxCell>
        <mxCell id="UbOd6Q2gbtsD8C0l6RZb-11" value="&lt;b style=&quot;font-size: 18px;&quot;&gt;&lt;font style=&quot;font-size: 18px;&quot;&gt;初始化&lt;/font&gt;&lt;/b&gt;&lt;div style=&quot;font-size: 18px;&quot;&gt;&lt;b style=&quot;&quot;&gt;&lt;font style=&quot;font-size: 18px;&quot;&gt;BeanFactory&lt;/font&gt;&lt;/b&gt;&lt;/div&gt;" style="text;strokeColor=none;fillColor=none;align=left;verticalAlign=middle;spacingLeft=4;spacingRight=4;overflow=hidden;points=[[0,0.5],[1,0.5]];portConstraint=eastwest;rotatable=0;whiteSpace=wrap;html=1;" vertex="1" parent="1">
          <mxGeometry x="20" y="40" width="140" height="110" as="geometry" />
        </mxCell>
        <mxCell id="UbOd6Q2gbtsD8C0l6RZb-12" value="&lt;span style=&quot;font-size: 18px;&quot;&gt;&lt;b&gt;初始化&lt;/b&gt;&lt;/span&gt;&lt;div&gt;&lt;span style=&quot;font-size: 18px;&quot;&gt;&lt;b&gt;装配属性&lt;/b&gt;&lt;/span&gt;&lt;/div&gt;" style="text;strokeColor=none;fillColor=none;align=left;verticalAlign=middle;spacingLeft=4;spacingRight=4;overflow=hidden;points=[[0,0.5],[1,0.5]];portConstraint=eastwest;rotatable=0;whiteSpace=wrap;html=1;" vertex="1" parent="1">
          <mxGeometry x="20" y="180" width="140" height="110" as="geometry" />
        </mxCell>
        <mxCell id="UbOd6Q2gbtsD8C0l6RZb-13" value="&lt;span style=&quot;font-size: 18px;&quot;&gt;&lt;b&gt;设置Aware&lt;/b&gt;&lt;/span&gt;" style="text;strokeColor=none;fillColor=none;align=left;verticalAlign=middle;spacingLeft=4;spacingRight=4;overflow=hidden;points=[[0,0.5],[1,0.5]];portConstraint=eastwest;rotatable=0;whiteSpace=wrap;html=1;" vertex="1" parent="1">
          <mxGeometry x="14" y="487.5" width="140" height="110" as="geometry" />
        </mxCell>
        <mxCell id="UbOd6Q2gbtsD8C0l6RZb-14" value="&lt;span style=&quot;font-size: 18px;&quot;&gt;&lt;b&gt;初始化&lt;/b&gt;&lt;/span&gt;&lt;div&gt;&lt;span style=&quot;font-size: 18px;&quot;&gt;&lt;b&gt;单例&lt;/b&gt;&lt;/span&gt;&lt;span style=&quot;color: rgba(0, 0, 0, 0); font-family: monospace; font-size: 0px; text-wrap: nowrap; background-color: initial;&quot;&gt;%3CmxGraphModel%3E%3Croot%3E%3CmxCell%20id%3D%220%22%2F%3E%3CmxCell%20id%3D%221%22%20parent%3D%220%22%2F%3E%3CmxCell%20id%3D%222%22%20value%3D%22%26lt%3Bspan%20style%3D%26quot%3Bfont-size%3A%2018px%3B%26quot%3B%26gt%3B%26lt%3Bb%26gt%3B%E8%AE%BE%E7%BD%AEAware%26lt%3B%2Fb%26gt%3B%26lt%3B%2Fspan%26gt%3B%22%20style%3D%22text%3BstrokeColor%3Dnone%3BfillColor%3Dnone%3Balign%3Dleft%3BverticalAlign%3Dmiddle%3BspacingLeft%3D4%3BspacingRight%3D4%3Boverflow%3Dhidden%3Bpoints%3D%5B%5B0%2C0.5%5D%2C%5B1%2C0.5%5D%5D%3BportConstraint%3Deastwest%3Brotatable%3D0%3BwhiteSpace%3Dwrap%3Bhtml%3D1%3B%22%20vertex%3D%221%22%20parent%3D%221%22%3E%3CmxGeometry%20x%3D%2220%22%20y%3D%22310%22%20width%3D%22140%22%20height%3D%22110%22%20as%3D%22geometry%22%2F%3E%3C%2FmxCell%3E%3C%2Froot%3E%3C%2FmxGraphModel%3E&lt;/span&gt;&lt;b style=&quot;font-size: 18px; background-color: initial;&quot;&gt;Bean&lt;/b&gt;&lt;/div&gt;" style="text;strokeColor=none;fillColor=none;align=left;verticalAlign=middle;spacingLeft=4;spacingRight=4;overflow=hidden;points=[[0,0.5],[1,0.5]];portConstraint=eastwest;rotatable=0;whiteSpace=wrap;html=1;" vertex="1" parent="1">
          <mxGeometry x="20" y="895" width="140" height="110" as="geometry" />
        </mxCell>
        <mxCell id="UbOd6Q2gbtsD8C0l6RZb-15" value="&lt;span style=&quot;font-size: 18px;&quot;&gt;&lt;b&gt;初始化&lt;/b&gt;&lt;/span&gt;&lt;div&gt;&lt;span style=&quot;font-size: 18px;&quot;&gt;&lt;b&gt;其他Bean&lt;/b&gt;&lt;/span&gt;&lt;/div&gt;" style="text;strokeColor=none;fillColor=none;align=left;verticalAlign=middle;spacingLeft=4;spacingRight=4;overflow=hidden;points=[[0,0.5],[1,0.5]];portConstraint=eastwest;rotatable=0;whiteSpace=wrap;html=1;" vertex="1" parent="1">
          <mxGeometry x="14" y="1160" width="140" height="70" as="geometry" />
        </mxCell>
        <mxCell id="UbOd6Q2gbtsD8C0l6RZb-16" value="&lt;span style=&quot;font-size: 18px;&quot;&gt;&lt;b&gt;Bean实例化&lt;/b&gt;&lt;/span&gt;&lt;div&gt;&lt;span style=&quot;font-size: 18px;&quot;&gt;&lt;b&gt;完成后置处理&lt;/b&gt;&lt;/span&gt;&lt;/div&gt;" style="text;strokeColor=none;fillColor=none;align=left;verticalAlign=middle;spacingLeft=4;spacingRight=4;overflow=hidden;points=[[0,0.5],[1,0.5]];portConstraint=eastwest;rotatable=0;whiteSpace=wrap;html=1;" vertex="1" parent="1">
          <mxGeometry x="5" y="1320" width="140" height="110" as="geometry" />
        </mxCell>
        <mxCell id="UbOd6Q2gbtsD8C0l6RZb-17" value="&lt;span style=&quot;font-size: 18px;&quot;&gt;&lt;b&gt;Spring启动完成后置处理&lt;/b&gt;&lt;/span&gt;" style="text;strokeColor=none;fillColor=none;align=left;verticalAlign=middle;spacingLeft=4;spacingRight=4;overflow=hidden;points=[[0,0.5],[1,0.5]];portConstraint=eastwest;rotatable=0;whiteSpace=wrap;html=1;" vertex="1" parent="1">
          <mxGeometry x="14" y="1517.5" width="140" height="110" as="geometry" />
        </mxCell>
        <mxCell id="UbOd6Q2gbtsD8C0l6RZb-18" value="&lt;span style=&quot;font-size: 18px;&quot;&gt;&lt;b&gt;开启Http流量入口&lt;/b&gt;&lt;/span&gt;" style="text;strokeColor=none;fillColor=none;align=left;verticalAlign=middle;spacingLeft=4;spacingRight=4;overflow=hidden;points=[[0,0.5],[1,0.5]];portConstraint=eastwest;rotatable=0;whiteSpace=wrap;html=1;" vertex="1" parent="1">
          <mxGeometry x="5" y="1770" width="140" height="110" as="geometry" />
        </mxCell>
        <mxCell id="UbOd6Q2gbtsD8C0l6RZb-21" value="" style="edgeStyle=orthogonalEdgeStyle;rounded=0;orthogonalLoop=1;jettySize=auto;html=1;" edge="1" parent="1" source="UbOd6Q2gbtsD8C0l6RZb-19" target="UbOd6Q2gbtsD8C0l6RZb-20">
          <mxGeometry relative="1" as="geometry" />
        </mxCell>
        <mxCell id="UbOd6Q2gbtsD8C0l6RZb-19" value="&lt;font style=&quot;font-size: 14px;&quot;&gt;BeanFactoryPostProcessor&lt;/font&gt;" style="rounded=0;whiteSpace=wrap;html=1;" vertex="1" parent="1">
          <mxGeometry x="190" y="65" width="210" height="45" as="geometry" />
        </mxCell>
        <mxCell id="UbOd6Q2gbtsD8C0l6RZb-20" value="&lt;font style=&quot;font-size: 14px;&quot;&gt;postProcessBeanFactory&lt;/font&gt;" style="rounded=0;whiteSpace=wrap;html=1;" vertex="1" parent="1">
          <mxGeometry x="480" y="65" width="210" height="45" as="geometry" />
        </mxCell>
        <mxCell id="UbOd6Q2gbtsD8C0l6RZb-31" value="" style="edgeStyle=orthogonalEdgeStyle;rounded=0;orthogonalLoop=1;jettySize=auto;html=1;" edge="1" parent="1" source="UbOd6Q2gbtsD8C0l6RZb-29" target="UbOd6Q2gbtsD8C0l6RZb-30">
          <mxGeometry relative="1" as="geometry" />
        </mxCell>
        <mxCell id="UbOd6Q2gbtsD8C0l6RZb-36" value="" style="edgeStyle=orthogonalEdgeStyle;rounded=0;orthogonalLoop=1;jettySize=auto;html=1;" edge="1" parent="1" source="UbOd6Q2gbtsD8C0l6RZb-29" target="UbOd6Q2gbtsD8C0l6RZb-35">
          <mxGeometry relative="1" as="geometry" />
        </mxCell>
        <mxCell id="UbOd6Q2gbtsD8C0l6RZb-29" value="&lt;font style=&quot;font-size: 14px;&quot;&gt;TestSpringOrder 实例化&lt;/font&gt;" style="rounded=0;whiteSpace=wrap;html=1;" vertex="1" parent="1">
          <mxGeometry x="190" y="200" width="210" height="45" as="geometry" />
        </mxCell>
        <mxCell id="UbOd6Q2gbtsD8C0l6RZb-30" value="&lt;font style=&quot;font-size: 14px;&quot;&gt;new TestSpringOrder()&lt;/font&gt;" style="rounded=0;whiteSpace=wrap;html=1;" vertex="1" parent="1">
          <mxGeometry x="480" y="200" width="210" height="45" as="geometry" />
        </mxCell>
        <mxCell id="UbOd6Q2gbtsD8C0l6RZb-38" value="" style="edgeStyle=orthogonalEdgeStyle;rounded=0;orthogonalLoop=1;jettySize=auto;html=1;" edge="1" parent="1" source="UbOd6Q2gbtsD8C0l6RZb-35" target="UbOd6Q2gbtsD8C0l6RZb-37">
          <mxGeometry relative="1" as="geometry" />
        </mxCell>
        <mxCell id="UbOd6Q2gbtsD8C0l6RZb-35" value="&lt;font style=&quot;font-size: 14px;&quot;&gt;TestSpringOrder 实例化&lt;/font&gt;" style="rounded=0;whiteSpace=wrap;html=1;" vertex="1" parent="1">
          <mxGeometry x="190" y="270" width="210" height="45" as="geometry" />
        </mxCell>
        <mxCell id="UbOd6Q2gbtsD8C0l6RZb-37" value="&lt;font style=&quot;font-size: 14px;&quot;&gt;AutowiredAnnotationBeanPostProcessor&lt;/font&gt;" style="rounded=0;whiteSpace=wrap;html=1;" vertex="1" parent="1">
          <mxGeometry x="480" y="270" width="320" height="45" as="geometry" />
        </mxCell>
        <mxCell id="UbOd6Q2gbtsD8C0l6RZb-41" value="" style="edgeStyle=orthogonalEdgeStyle;rounded=0;orthogonalLoop=1;jettySize=auto;html=1;" edge="1" parent="1" source="UbOd6Q2gbtsD8C0l6RZb-39" target="UbOd6Q2gbtsD8C0l6RZb-40">
          <mxGeometry relative="1" as="geometry" />
        </mxCell>
        <mxCell id="UbOd6Q2gbtsD8C0l6RZb-39" value="&lt;font style=&quot;font-size: 14px;&quot;&gt;BeanNameAware&lt;/font&gt;" style="rounded=0;whiteSpace=wrap;html=1;" vertex="1" parent="1">
          <mxGeometry x="190" y="380" width="210" height="45" as="geometry" />
        </mxCell>
        <mxCell id="UbOd6Q2gbtsD8C0l6RZb-43" value="" style="edgeStyle=orthogonalEdgeStyle;rounded=0;orthogonalLoop=1;jettySize=auto;html=1;" edge="1" parent="1" source="UbOd6Q2gbtsD8C0l6RZb-40" target="UbOd6Q2gbtsD8C0l6RZb-42">
          <mxGeometry relative="1" as="geometry" />
        </mxCell>
        <mxCell id="UbOd6Q2gbtsD8C0l6RZb-40" value="&lt;font style=&quot;font-size: 14px;&quot;&gt;BeanFactoryAware&lt;/font&gt;" style="rounded=0;whiteSpace=wrap;html=1;" vertex="1" parent="1">
          <mxGeometry x="190" y="450" width="210" height="45" as="geometry" />
        </mxCell>
        <mxCell id="UbOd6Q2gbtsD8C0l6RZb-45" value="" style="edgeStyle=orthogonalEdgeStyle;rounded=0;orthogonalLoop=1;jettySize=auto;html=1;" edge="1" parent="1" source="UbOd6Q2gbtsD8C0l6RZb-42" target="UbOd6Q2gbtsD8C0l6RZb-44">
          <mxGeometry relative="1" as="geometry" />
        </mxCell>
        <mxCell id="UbOd6Q2gbtsD8C0l6RZb-42" value="&lt;font style=&quot;font-size: 14px;&quot;&gt;ApplicationContextAware&lt;/font&gt;" style="rounded=0;whiteSpace=wrap;html=1;" vertex="1" parent="1">
          <mxGeometry x="190" y="520" width="210" height="45" as="geometry" />
        </mxCell>
        <mxCell id="UbOd6Q2gbtsD8C0l6RZb-47" value="" style="edgeStyle=orthogonalEdgeStyle;rounded=0;orthogonalLoop=1;jettySize=auto;html=1;" edge="1" parent="1" source="UbOd6Q2gbtsD8C0l6RZb-44" target="UbOd6Q2gbtsD8C0l6RZb-46">
          <mxGeometry relative="1" as="geometry" />
        </mxCell>
        <mxCell id="UbOd6Q2gbtsD8C0l6RZb-44" value="&lt;font style=&quot;font-size: 14px;&quot;&gt;EnvironmentAware&lt;/font&gt;" style="rounded=0;whiteSpace=wrap;html=1;" vertex="1" parent="1">
          <mxGeometry x="190" y="590" width="210" height="45" as="geometry" />
        </mxCell>
        <mxCell id="UbOd6Q2gbtsD8C0l6RZb-46" value="&lt;font style=&quot;font-size: 14px;&quot;&gt;ResourceLoaderAware&lt;/font&gt;" style="rounded=0;whiteSpace=wrap;html=1;" vertex="1" parent="1">
          <mxGeometry x="190" y="660" width="210" height="45" as="geometry" />
        </mxCell>
        <mxCell id="UbOd6Q2gbtsD8C0l6RZb-49" value="&lt;font style=&quot;font-size: 14px;&quot;&gt;setBeanName&lt;/font&gt;" style="rounded=0;whiteSpace=wrap;html=1;dashed=1;" vertex="1" parent="1">
          <mxGeometry x="520" y="380" width="210" height="45" as="geometry" />
        </mxCell>
        <mxCell id="UbOd6Q2gbtsD8C0l6RZb-50" value="&lt;font style=&quot;font-size: 14px;&quot;&gt;setBeanFactory&lt;/font&gt;" style="rounded=0;whiteSpace=wrap;html=1;dashed=1;" vertex="1" parent="1">
          <mxGeometry x="520" y="450" width="210" height="45" as="geometry" />
        </mxCell>
        <mxCell id="UbOd6Q2gbtsD8C0l6RZb-51" value="&lt;font style=&quot;font-size: 14px;&quot;&gt;ApplicationContextAware&lt;/font&gt;&lt;div&gt;&lt;font style=&quot;font-size: 14px;&quot;&gt;BeanPostProcessor&lt;/font&gt;&lt;/div&gt;" style="rounded=0;whiteSpace=wrap;html=1;dashed=1;" vertex="1" parent="1">
          <mxGeometry x="520" y="517.5" width="210" height="45" as="geometry" />
        </mxCell>
        <mxCell id="UbOd6Q2gbtsD8C0l6RZb-52" value="&lt;font style=&quot;font-size: 14px;&quot;&gt;setEnvironment&lt;/font&gt;" style="rounded=0;whiteSpace=wrap;html=1;dashed=1;" vertex="1" parent="1">
          <mxGeometry x="520" y="590" width="210" height="45" as="geometry" />
        </mxCell>
        <mxCell id="UbOd6Q2gbtsD8C0l6RZb-53" value="&lt;font style=&quot;font-size: 14px;&quot;&gt;setResourceLoader&lt;/font&gt;" style="rounded=0;whiteSpace=wrap;html=1;dashed=1;" vertex="1" parent="1">
          <mxGeometry x="520" y="660" width="210" height="45" as="geometry" />
        </mxCell>
        <mxCell id="UbOd6Q2gbtsD8C0l6RZb-66" style="edgeStyle=orthogonalEdgeStyle;rounded=0;orthogonalLoop=1;jettySize=auto;html=1;" edge="1" parent="1" source="UbOd6Q2gbtsD8C0l6RZb-56" target="UbOd6Q2gbtsD8C0l6RZb-57">
          <mxGeometry relative="1" as="geometry" />
        </mxCell>
        <mxCell id="UbOd6Q2gbtsD8C0l6RZb-56" value="&lt;font style=&quot;font-size: 14px;&quot;&gt;BeanPostProcessor&lt;/font&gt;" style="rounded=0;whiteSpace=wrap;html=1;" vertex="1" parent="1">
          <mxGeometry x="190" y="780" width="210" height="45" as="geometry" />
        </mxCell>
        <mxCell id="UbOd6Q2gbtsD8C0l6RZb-67" style="edgeStyle=orthogonalEdgeStyle;rounded=0;orthogonalLoop=1;jettySize=auto;html=1;" edge="1" parent="1" source="UbOd6Q2gbtsD8C0l6RZb-57" target="UbOd6Q2gbtsD8C0l6RZb-58">
          <mxGeometry relative="1" as="geometry" />
        </mxCell>
        <mxCell id="UbOd6Q2gbtsD8C0l6RZb-57" value="&lt;font style=&quot;font-size: 14px;&quot;&gt;PostConstruct&lt;/font&gt;" style="rounded=0;whiteSpace=wrap;html=1;" vertex="1" parent="1">
          <mxGeometry x="190" y="850" width="210" height="45" as="geometry" />
        </mxCell>
        <mxCell id="UbOd6Q2gbtsD8C0l6RZb-68" style="edgeStyle=orthogonalEdgeStyle;rounded=0;orthogonalLoop=1;jettySize=auto;html=1;" edge="1" parent="1" source="UbOd6Q2gbtsD8C0l6RZb-58" target="UbOd6Q2gbtsD8C0l6RZb-59">
          <mxGeometry relative="1" as="geometry" />
        </mxCell>
        <mxCell id="UbOd6Q2gbtsD8C0l6RZb-58" value="&lt;font style=&quot;font-size: 14px;&quot;&gt;InitializingBean&lt;/font&gt;" style="rounded=0;whiteSpace=wrap;html=1;" vertex="1" parent="1">
          <mxGeometry x="190" y="920" width="210" height="45" as="geometry" />
        </mxCell>
        <mxCell id="UbOd6Q2gbtsD8C0l6RZb-69" style="edgeStyle=orthogonalEdgeStyle;rounded=0;orthogonalLoop=1;jettySize=auto;html=1;" edge="1" parent="1" source="UbOd6Q2gbtsD8C0l6RZb-59" target="UbOd6Q2gbtsD8C0l6RZb-60">
          <mxGeometry relative="1" as="geometry" />
        </mxCell>
        <mxCell id="UbOd6Q2gbtsD8C0l6RZb-59" value="&lt;font style=&quot;font-size: 14px;&quot;&gt;init-method&lt;/font&gt;" style="rounded=0;whiteSpace=wrap;html=1;" vertex="1" parent="1">
          <mxGeometry x="190" y="990" width="210" height="45" as="geometry" />
        </mxCell>
        <mxCell id="UbOd6Q2gbtsD8C0l6RZb-60" value="&lt;font style=&quot;font-size: 14px;&quot;&gt;BeanPostProcessor&lt;/font&gt;" style="rounded=0;whiteSpace=wrap;html=1;" vertex="1" parent="1">
          <mxGeometry x="190" y="1060" width="210" height="45" as="geometry" />
        </mxCell>
        <mxCell id="UbOd6Q2gbtsD8C0l6RZb-70" value="&lt;font style=&quot;font-size: 14px;&quot;&gt;postProcessBeforeInitialization&lt;/font&gt;" style="rounded=0;whiteSpace=wrap;html=1;" vertex="1" parent="1">
          <mxGeometry x="530" y="780" width="210" height="45" as="geometry" />
        </mxCell>
        <mxCell id="UbOd6Q2gbtsD8C0l6RZb-71" value="&lt;font style=&quot;font-size: 14px;&quot;&gt;post-construct&lt;/font&gt;" style="rounded=0;whiteSpace=wrap;html=1;" vertex="1" parent="1">
          <mxGeometry x="530" y="850" width="210" height="45" as="geometry" />
        </mxCell>
        <mxCell id="UbOd6Q2gbtsD8C0l6RZb-72" value="&lt;font style=&quot;font-size: 14px;&quot;&gt;afterPropertiesSet&lt;/font&gt;" style="rounded=0;whiteSpace=wrap;html=1;" vertex="1" parent="1">
          <mxGeometry x="530" y="920" width="210" height="45" as="geometry" />
        </mxCell>
        <mxCell id="UbOd6Q2gbtsD8C0l6RZb-73" value="&lt;font style=&quot;font-size: 14px;&quot;&gt;init-method&lt;/font&gt;" style="rounded=0;whiteSpace=wrap;html=1;" vertex="1" parent="1">
          <mxGeometry x="530" y="990" width="210" height="45" as="geometry" />
        </mxCell>
        <mxCell id="UbOd6Q2gbtsD8C0l6RZb-74" value="&lt;font style=&quot;font-size: 14px;&quot;&gt;postProcessAfterInitialization&lt;/font&gt;" style="rounded=0;whiteSpace=wrap;html=1;" vertex="1" parent="1">
          <mxGeometry x="535" y="1060" width="210" height="45" as="geometry" />
        </mxCell>
        <mxCell id="UbOd6Q2gbtsD8C0l6RZb-75" value="&lt;font style=&quot;font-size: 14px;&quot;&gt;@Bean 创建和初始化其他Bean&lt;/font&gt;" style="rounded=0;whiteSpace=wrap;html=1;" vertex="1" parent="1">
          <mxGeometry x="180" y="1172.5" width="210" height="45" as="geometry" />
        </mxCell>
        <mxCell id="UbOd6Q2gbtsD8C0l6RZb-76" value="&lt;font style=&quot;font-size: 14px;&quot;&gt;new OthersBean();&lt;/font&gt;" style="rounded=0;whiteSpace=wrap;html=1;" vertex="1" parent="1">
          <mxGeometry x="530" y="1172.5" width="210" height="45" as="geometry" />
        </mxCell>
        <mxCell id="UbOd6Q2gbtsD8C0l6RZb-77" value="多例Bean在业务调用时初始化" style="text;html=1;align=center;verticalAlign=middle;whiteSpace=wrap;rounded=0;" vertex="1" parent="1">
          <mxGeometry x="40" y="1020" width="90" height="90" as="geometry" />
        </mxCell>
        <mxCell id="UbOd6Q2gbtsD8C0l6RZb-79" style="rounded=0;orthogonalLoop=1;jettySize=auto;html=1;dashed=1;" edge="1" parent="1" source="UbOd6Q2gbtsD8C0l6RZb-78">
          <mxGeometry relative="1" as="geometry">
            <mxPoint x="490" y="1262.5" as="targetPoint" />
          </mxGeometry>
        </mxCell>
        <mxCell id="UbOd6Q2gbtsD8C0l6RZb-78" value="&lt;font style=&quot;font-size: 13px;&quot;&gt;所有Bean&lt;/font&gt;&lt;div&gt;&lt;font style=&quot;font-size: 13px;&quot;&gt;初始化完成&lt;/font&gt;&lt;/div&gt;" style="text;html=1;align=center;verticalAlign=middle;whiteSpace=wrap;rounded=0;" vertex="1" parent="1">
          <mxGeometry x="30" y="1217.5" width="90" height="90" as="geometry" />
        </mxCell>
        <mxCell id="UbOd6Q2gbtsD8C0l6RZb-82" value="" style="edgeStyle=orthogonalEdgeStyle;rounded=0;orthogonalLoop=1;jettySize=auto;html=1;" edge="1" parent="1" source="UbOd6Q2gbtsD8C0l6RZb-80" target="UbOd6Q2gbtsD8C0l6RZb-81">
          <mxGeometry relative="1" as="geometry" />
        </mxCell>
        <mxCell id="UbOd6Q2gbtsD8C0l6RZb-84" value="" style="edgeStyle=orthogonalEdgeStyle;rounded=0;orthogonalLoop=1;jettySize=auto;html=1;dashed=1;" edge="1" parent="1" source="UbOd6Q2gbtsD8C0l6RZb-80" target="UbOd6Q2gbtsD8C0l6RZb-83">
          <mxGeometry relative="1" as="geometry" />
        </mxCell>
        <mxCell id="UbOd6Q2gbtsD8C0l6RZb-80" value="&lt;font style=&quot;font-size: 14px;&quot;&gt;SmartInitializingSingleton&lt;/font&gt;" style="rounded=0;whiteSpace=wrap;html=1;" vertex="1" parent="1">
          <mxGeometry x="180" y="1320" width="210" height="45" as="geometry" />
        </mxCell>
        <mxCell id="UbOd6Q2gbtsD8C0l6RZb-86" value="" style="edgeStyle=orthogonalEdgeStyle;rounded=0;orthogonalLoop=1;jettySize=auto;html=1;dashed=1;" edge="1" parent="1" source="UbOd6Q2gbtsD8C0l6RZb-81" target="UbOd6Q2gbtsD8C0l6RZb-85">
          <mxGeometry relative="1" as="geometry" />
        </mxCell>
        <mxCell id="UbOd6Q2gbtsD8C0l6RZb-81" value="&lt;font style=&quot;font-size: 14px;&quot;&gt;EventListener&lt;/font&gt;" style="rounded=0;whiteSpace=wrap;html=1;" vertex="1" parent="1">
          <mxGeometry x="180" y="1390" width="210" height="45" as="geometry" />
        </mxCell>
        <mxCell id="UbOd6Q2gbtsD8C0l6RZb-83" value="&lt;font style=&quot;font-size: 14px;&quot;&gt;afterSingletonsInstantiated&lt;/font&gt;" style="rounded=0;whiteSpace=wrap;html=1;" vertex="1" parent="1">
          <mxGeometry x="490" y="1320" width="210" height="45" as="geometry" />
        </mxCell>
        <mxCell id="UbOd6Q2gbtsD8C0l6RZb-85" value="&lt;font style=&quot;font-size: 14px;&quot;&gt;注册 EventListener到Spring&lt;/font&gt;" style="rounded=0;whiteSpace=wrap;html=1;" vertex="1" parent="1">
          <mxGeometry x="490" y="1390" width="210" height="45" as="geometry" />
        </mxCell>
        <mxCell id="UbOd6Q2gbtsD8C0l6RZb-89" value="" style="edgeStyle=orthogonalEdgeStyle;rounded=0;orthogonalLoop=1;jettySize=auto;html=1;" edge="1" parent="1" source="UbOd6Q2gbtsD8C0l6RZb-87" target="UbOd6Q2gbtsD8C0l6RZb-88">
          <mxGeometry relative="1" as="geometry" />
        </mxCell>
        <mxCell id="UbOd6Q2gbtsD8C0l6RZb-87" value="&lt;font style=&quot;font-size: 14px;&quot;&gt;SmartLifecycle&lt;/font&gt;" style="rounded=0;whiteSpace=wrap;html=1;" vertex="1" parent="1">
          <mxGeometry x="180" y="1500" width="210" height="45" as="geometry" />
        </mxCell>
        <mxCell id="UbOd6Q2gbtsD8C0l6RZb-92" value="" style="edgeStyle=orthogonalEdgeStyle;rounded=0;orthogonalLoop=1;jettySize=auto;html=1;" edge="1" parent="1" source="UbOd6Q2gbtsD8C0l6RZb-88" target="UbOd6Q2gbtsD8C0l6RZb-91">
          <mxGeometry relative="1" as="geometry" />
        </mxCell>
        <mxCell id="UbOd6Q2gbtsD8C0l6RZb-88" value="&lt;font style=&quot;font-size: 14px;&quot;&gt;Scheduled&lt;/font&gt;" style="rounded=0;whiteSpace=wrap;html=1;" vertex="1" parent="1">
          <mxGeometry x="180" y="1570" width="210" height="45" as="geometry" />
        </mxCell>
        <mxCell id="UbOd6Q2gbtsD8C0l6RZb-91" value="&lt;font style=&quot;font-size: 14px;&quot;&gt;ApplicationEvent&lt;/font&gt;" style="rounded=0;whiteSpace=wrap;html=1;" vertex="1" parent="1">
          <mxGeometry x="180" y="1640" width="210" height="45" as="geometry" />
        </mxCell>
        <mxCell id="UbOd6Q2gbtsD8C0l6RZb-93" value="&lt;font style=&quot;font-size: 14px;&quot;&gt;start&lt;/font&gt;" style="rounded=0;whiteSpace=wrap;html=1;" vertex="1" parent="1">
          <mxGeometry x="500" y="1500" width="210" height="45" as="geometry" />
        </mxCell>
        <mxCell id="UbOd6Q2gbtsD8C0l6RZb-94" value="" style="rounded=0;orthogonalLoop=1;jettySize=auto;html=1;dashed=1;exitX=1;exitY=0.5;exitDx=0;exitDy=0;" edge="1" parent="1" target="UbOd6Q2gbtsD8C0l6RZb-95" source="UbOd6Q2gbtsD8C0l6RZb-88">
          <mxGeometry relative="1" as="geometry">
            <mxPoint x="380" y="1590" as="sourcePoint" />
          </mxGeometry>
        </mxCell>
        <mxCell id="UbOd6Q2gbtsD8C0l6RZb-95" value="&lt;font style=&quot;font-size: 14px;&quot;&gt;定时任务开始调度&lt;/font&gt;" style="rounded=0;whiteSpace=wrap;html=1;" vertex="1" parent="1">
          <mxGeometry x="490" y="1570" width="210" height="45" as="geometry" />
        </mxCell>
        <mxCell id="UbOd6Q2gbtsD8C0l6RZb-96" value="" style="rounded=0;orthogonalLoop=1;jettySize=auto;html=1;dashed=1;" edge="1" parent="1" target="UbOd6Q2gbtsD8C0l6RZb-97">
          <mxGeometry relative="1" as="geometry">
            <mxPoint x="390" y="1663" as="sourcePoint" />
          </mxGeometry>
        </mxCell>
        <mxCell id="UbOd6Q2gbtsD8C0l6RZb-97" value="&lt;font style=&quot;font-size: 14px;&quot;&gt;发布ContextRefreshedEvent&lt;/font&gt;" style="rounded=0;whiteSpace=wrap;html=1;" vertex="1" parent="1">
          <mxGeometry x="490" y="1640" width="210" height="45" as="geometry" />
        </mxCell>
        <mxCell id="UbOd6Q2gbtsD8C0l6RZb-98" value="&lt;font style=&quot;font-size: 14px;&quot;&gt;初始化Spring MVC&lt;/font&gt;" style="rounded=0;whiteSpace=wrap;html=1;" vertex="1" parent="1">
          <mxGeometry x="210" y="1754" width="210" height="45" as="geometry" />
        </mxCell>
        <mxCell id="UbOd6Q2gbtsD8C0l6RZb-99" value="" style="rounded=0;orthogonalLoop=1;jettySize=auto;html=1;dashed=1;exitX=1;exitY=0.5;exitDx=0;exitDy=0;" edge="1" parent="1" source="UbOd6Q2gbtsD8C0l6RZb-98" target="UbOd6Q2gbtsD8C0l6RZb-100">
          <mxGeometry relative="1" as="geometry">
            <mxPoint x="410" y="1774" as="sourcePoint" />
          </mxGeometry>
        </mxCell>
        <mxCell id="UbOd6Q2gbtsD8C0l6RZb-100" value="&lt;font style=&quot;font-size: 14px;&quot;&gt;DispatcherServlet初始化&lt;/font&gt;" style="rounded=0;whiteSpace=wrap;html=1;" vertex="1" parent="1">
          <mxGeometry x="520" y="1754" width="210" height="45" as="geometry" />
        </mxCell>
        <mxCell id="UbOd6Q2gbtsD8C0l6RZb-101" value="&lt;font style=&quot;font-size: 14px;&quot;&gt;开启Tomcat/Jetty容器&lt;/font&gt;" style="rounded=0;whiteSpace=wrap;html=1;" vertex="1" parent="1">
          <mxGeometry x="210" y="1820" width="210" height="45" as="geometry" />
        </mxCell>
        <mxCell id="UbOd6Q2gbtsD8C0l6RZb-102" value="" style="rounded=0;orthogonalLoop=1;jettySize=auto;html=1;dashed=1;exitX=1;exitY=0.5;exitDx=0;exitDy=0;" edge="1" parent="1" source="UbOd6Q2gbtsD8C0l6RZb-101" target="UbOd6Q2gbtsD8C0l6RZb-103">
          <mxGeometry relative="1" as="geometry">
            <mxPoint x="410" y="1840" as="sourcePoint" />
          </mxGeometry>
        </mxCell>
        <mxCell id="UbOd6Q2gbtsD8C0l6RZb-103" value="&lt;font style=&quot;font-size: 14px;&quot;&gt;容器初始化: 监听端口&lt;/font&gt;" style="rounded=0;whiteSpace=wrap;html=1;" vertex="1" parent="1">
          <mxGeometry x="520" y="1820" width="210" height="45" as="geometry" />
        </mxCell>
        <mxCell id="UbOd6Q2gbtsD8C0l6RZb-104" value="&lt;font style=&quot;font-size: 14px;&quot;&gt;CommandLineRunner&lt;/font&gt;" style="rounded=0;whiteSpace=wrap;html=1;" vertex="1" parent="1">
          <mxGeometry x="210" y="1890" width="210" height="45" as="geometry" />
        </mxCell>
        <mxCell id="UbOd6Q2gbtsD8C0l6RZb-105" value="" style="rounded=0;orthogonalLoop=1;jettySize=auto;html=1;dashed=1;exitX=1;exitY=0.5;exitDx=0;exitDy=0;" edge="1" parent="1" source="UbOd6Q2gbtsD8C0l6RZb-104" target="UbOd6Q2gbtsD8C0l6RZb-106">
          <mxGeometry relative="1" as="geometry">
            <mxPoint x="410" y="1910" as="sourcePoint" />
          </mxGeometry>
        </mxCell>
        <mxCell id="UbOd6Q2gbtsD8C0l6RZb-106" value="&lt;font style=&quot;font-size: 14px;&quot;&gt;run&lt;/font&gt;" style="rounded=0;whiteSpace=wrap;html=1;" vertex="1" parent="1">
          <mxGeometry x="520" y="1890" width="210" height="45" as="geometry" />
        </mxCell>
      </root>
    </mxGraphModel>
  </diagram>
</mxfile>
